<svg id="Layer_1" data-name="Layer 1" xmlns="http://www.w3.org/2000/svg" viewBox="0 0 28.34 32.39"><defs><style>.cls-1{fill:#7289da;}</style></defs><title>Discord-Logo-Color</title><path class="cls-1" d="M13.69,14a1.8,1.8,0,0,0,0,3.6A1.8,1.8,0,0,0,13.69,14Zm5.91,0a1.8,1.8,0,1,0,1.65,1.8A1.73,1.73,0,0,0,19.6,14Z" transform="translate(-2.46 -0.43)"/><path class="cls-1" d="M27.47,0.43H5.78A3.33,3.33,0,0,0,2.46,3.76V25.65A3.33,3.33,0,0,0,5.78,29H24.14l-0.86-3,2.07,1.93,2,1.81,3.48,3.08V3.76A3.33,3.33,0,0,0,27.47.43ZM21.22,21.57s-0.58-.7-1.07-1.31a5.11,5.11,0,0,0,2.93-1.93,9.27,9.27,0,0,1-1.86,1,10.66,10.66,0,0,1-2.35.7,11.34,11.34,0,0,1-4.19,0,13.59,13.59,0,0,1-2.38-.7,9.49,9.49,0,0,1-1.18-.55L11,18.64l-0.06,0c-0.29-.16-0.45-0.28-0.45-0.28a5,5,0,0,0,2.83,1.91c-0.49.62-1.08,1.34-1.08,1.34a5.87,5.87,0,0,1-4.94-2.46A21.69,21.69,0,0,1,9.6,9.67,8,8,0,0,1,14.15,8l0.16,0.19a10.92,10.92,0,0,0-4.26,2.12s0.36-.19,1-0.47a12.16,12.16,0,0,1,3.68-1,1.6,1.6,0,0,1,.28,0,13.7,13.7,0,0,1,3.27,0,13.2,13.2,0,0,1,4.87,1.55,10.78,10.78,0,0,0-4-2.06L19.3,8a8,8,0,0,1,4.55,1.7,21.69,21.69,0,0,1,2.33,9.44A5.92,5.92,0,0,1,21.22,21.57Z" transform="translate(-2.46 -0.43)"/></svg>