<?xml version="1.0" encoding="utf-8"?>
<!-- Generator: Adobe Illustrator 19.2.1, SVG Export Plug-In . SVG Version: 6.00 Build 0)  -->
<!DOCTYPE svg PUBLIC "-//W3C//DTD SVG 1.1//EN" "http://www.w3.org/Graphics/SVG/1.1/DTD/svg11.dtd">
<svg version="1.1" id="Layer_1" xmlns="http://www.w3.org/2000/svg" xmlns:xlink="http://www.w3.org/1999/xlink" x="0px" y="0px"
	 viewBox="0 0 142 90" style="enable-background:new 0 0 142 90;" xml:space="preserve">
<style type="text/css">
	.st0{fill:#EF5C23;}
	.st1{fill:#E7E7E7;}
</style>
<rect x="0" class="st0" width="4" height="90"/>
<rect x="138" class="st0" width="4" height="90"/>
<rect x="5" class="st0" width="132" height="90"/>
<g>
	<path class="st1" d="M34.9,55.2h-5.4V34H23v-4.5h18.3V34h-6.4V55.2z"/>
	<path class="st1" d="M45.3,55.2V29.5h5.4v21.2h9.4v4.5H45.3z"/>
	<path class="st1" d="M69.1,51l0.3,0.4c-0.2,0.6-0.4,1.3-0.6,2s-0.5,1.4-0.8,2.2s-0.6,1.5-0.9,2.2s-0.6,1.4-0.9,2.1h-3.9
		c0.2-0.7,0.3-1.5,0.5-2.2s0.3-1.5,0.5-2.3s0.3-1.5,0.4-2.2s0.2-1.4,0.3-2H69.1z M63.4,38.1c0-0.6,0.1-1,0.2-1.4s0.4-0.7,0.7-0.9
		s0.6-0.4,1-0.5s0.8-0.2,1.2-0.2c0.4,0,0.8,0.1,1.2,0.2s0.7,0.3,1,0.5s0.5,0.5,0.7,0.9s0.2,0.8,0.2,1.4c0,0.5-0.1,1-0.2,1.4
		s-0.4,0.7-0.7,0.9s-0.6,0.4-1,0.5s-0.8,0.2-1.2,0.2c-0.4,0-0.8-0.1-1.2-0.2s-0.7-0.3-1-0.5s-0.5-0.6-0.7-0.9S63.4,38.6,63.4,38.1z"
		/>
	<path class="st1" d="M94.9,42.1c0,2.2-0.3,4.1-0.9,5.7s-1.4,3-2.6,4.1s-2.5,1.9-4.1,2.5s-3.5,0.8-5.5,0.8H75V29.5h7.5
		c1.9,0,3.6,0.3,5.1,0.8s2.8,1.3,3.9,2.4s1.9,2.4,2.5,3.9S94.9,40,94.9,42.1z M89.4,42.2c0-1.4-0.1-2.7-0.4-3.7s-0.7-1.9-1.2-2.6
		s-1.2-1.2-2-1.5S84,33.9,83,33.9h-2.5v16.7h2c2.3,0,4-0.7,5.2-2.1S89.4,45,89.4,42.2z"/>
	<path class="st1" d="M105.7,45.3v9.9h-5.4V29.5h7c3.3,0,5.7,0.6,7.3,1.9s2.4,3.2,2.4,5.8c0,0.9-0.1,1.7-0.4,2.4s-0.5,1.4-0.9,1.9
		s-0.8,1-1.4,1.5s-1,0.8-1.6,1c1.3,2.1,2.5,3.9,3.5,5.6c0.4,0.7,0.9,1.4,1.3,2.1s0.8,1.3,1.1,1.8s0.6,0.9,0.8,1.3l0.3,0.5h-6
		l-5.6-9.9H105.7z M105.7,40.9h1.5c1.5,0,2.6-0.3,3.3-0.9s1-1.5,1-2.7c0-1.2-0.4-2.1-1.1-2.6s-1.8-0.8-3.3-0.8h-1.4V40.9z"/>
</g>
</svg>
