<svg id="Layer_1" data-name="Layer 1" xmlns="http://www.w3.org/2000/svg" viewBox="0 0 142 50"><defs><style>.cls-1{fill:#ef5c23;}.cls-2{fill:#e7e7e7;}</style></defs><title>tldr-logo-mobile</title><rect class="cls-1" width="4" height="50"/><rect class="cls-1" x="138" width="4" height="50"/><rect class="cls-1" x="5" width="132" height="50"/><path class="cls-2" d="M34.92,37.66H29.49V16.5H23V12H41.36V16.5H34.92V37.66Z" transform="translate(0)"/><path class="cls-2" d="M45.31,37.66V12h5.45v21.2h9.35v4.5H45.31Z" transform="translate(0)"/><path class="cls-2" d="M69.15,33.48l0.26,0.4q-0.25.95-.59,2t-0.76,2.16q-0.41,1.09-.86,2.17T66.32,42.3H62.45q0.26-1.07.52-2.23t0.49-2.31q0.24-1.15.43-2.25t0.33-2h4.92ZM63.4,20.63a3.65,3.65,0,0,1,.24-1.4,2.34,2.34,0,0,1,.66-0.92,2.63,2.63,0,0,1,1-.51,4.46,4.46,0,0,1,1.21-.16,4.24,4.24,0,0,1,1.17.16,2.63,2.63,0,0,1,1,.51,2.42,2.42,0,0,1,.67.92,3.53,3.53,0,0,1,.25,1.4A3.43,3.43,0,0,1,69.31,22a2.5,2.5,0,0,1-.67.93,2.67,2.67,0,0,1-1,.53,4,4,0,0,1-1.17.17,4.24,4.24,0,0,1-1.21-.17,2.66,2.66,0,0,1-1-.53A2.42,2.42,0,0,1,63.64,22,3.54,3.54,0,0,1,63.4,20.63Z" transform="translate(0)"/><path class="cls-2" d="M94.9,24.57a16.73,16.73,0,0,1-.89,5.7,10.33,10.33,0,0,1-6.68,6.57,17.22,17.22,0,0,1-5.55.83H75V12h7.52a15.18,15.18,0,0,1,5.11.81,10.46,10.46,0,0,1,3.89,2.4A10.59,10.59,0,0,1,94,19.12,15.68,15.68,0,0,1,94.9,24.57Zm-5.52.14a14,14,0,0,0-.43-3.7,7.09,7.09,0,0,0-1.25-2.58,5,5,0,0,0-2-1.51A7,7,0,0,0,83,16.43H80.47V33.16h2a6.31,6.31,0,0,0,5.18-2.11Q89.38,28.94,89.38,24.71Z" transform="translate(0)"/><path class="cls-2" d="M105.67,27.8v9.86h-5.45V12h7q4.94,0,7.29,1.91t2.36,5.79a7.65,7.65,0,0,1-.35,2.39,7.15,7.15,0,0,1-.94,1.91,7.31,7.31,0,0,1-1.35,1.46,8.68,8.68,0,0,1-1.61,1l3.5,5.59,1.29,2.06,1.12,1.79q0.49,0.79.81,1.27l0.3,0.49h-6L108,27.8h-2.37Zm0-4.43h1.48a4.74,4.74,0,0,0,3.25-.91,3.44,3.44,0,0,0,1-2.66,3,3,0,0,0-1.05-2.6,5.56,5.56,0,0,0-3.27-.77h-1.39v6.94Z" transform="translate(0)"/></svg>